<?xml version="1.0" encoding="UTF-8"?><svg xmlns="http://www.w3.org/2000/svg" viewBox="0 0 783.97 134.6"><defs><style>.d{fill:#ff6b01;}.e{fill:#0f4c81;}</style></defs><g id="a"/><g id="b"><g id="c"><g><g><g><path class="d" d="M136.85,133.4l.02-.03h-.03l.02,.03Z"/><path class="d" d="M175.26,133.4v-.03h-.01v.03Z"/><polygon class="d" points="98.44 133.37 98.44 133.37 98.44 133.37 98.44 133.37"/><path class="d" d="M194.48,133.39v-.02h-.01v.02Z"/><path class="d" d="M156.05,133.39v-.02h-.01v.02Z"/><path class="d" d="M79.22,133.39v-.02h-.01v.02Z"/><path class="d" d="M185.35,117.62h18.2c-3.02,5.25-5.91,10.28-9.06,15.75h19.35C188.03,88.68,162.59,44.61,136.83,0c-25.77,44.64-51.23,88.75-76.98,133.37h19.37c-3.06-5.31-5.99-10.39-9.07-15.73h18.15c-3.06,5.31-5.97,10.36-9.06,15.73h19.2c-6.38-11.03-12.48-21.58-18.78-32.47h37.53c-6.24,10.8-12.33,21.36-18.75,32.47h19.2c-3.1-5.35-6-10.36-9.05-15.64h18.09c-3.03,5.24-5.93,10.25-9.04,15.64h19.19c-12.69-21.98-25.23-43.7-37.95-65.72h75.92c-12.69,21.99-25.24,43.73-37.94,65.72h19.17c-3.06-5.3-5.97-10.35-9.04-15.68h18.12c-3.07,5.32-5.98,10.37-9.04,15.68h19.18c-6.28-10.87-12.42-21.52-18.72-32.43h37.47c-6.25,10.83-12.39,21.48-18.71,32.43h19.19c-3.1-5.36-6.01-10.39-9.12-15.75Zm-77.9-33.15c-3.03,5.26-5.94,10.33-9.02,15.68-3.09-5.36-5.99-10.38-9.04-15.68h18.06ZM145.97,17.77c-3.02,5.24-5.95,10.31-9.12,15.81-3.11-5.37-6.05-10.46-9.15-15.81h18.27Zm-28.34,49.08c-3.11-5.4-5.97-10.37-9.02-15.66h18.08c-2.96,5.11-5.9,10.21-9.05,15.66Zm.47-32.46h37.49c-6.25,10.83-12.39,21.45-18.74,32.45-6.32-10.94-12.46-21.56-18.75-32.45Zm45.41,19.57c-2.4,4.16-4.82,8.32-7.45,12.86-3.06-5.29-5.96-10.29-9.03-15.59h17.98c-.59,1.07-1.02,1.91-1.49,2.73Zm11.76,46.17c-3.05-5.28-5.96-10.33-9.08-15.73h18.13c-3.06,5.32-5.97,10.37-9.05,15.73Z"/></g><g><polygon class="e" points="226.28 133.4 148.32 .14 273.41 133.4 226.28 133.4"/><polygon class="e" points="47.13 133.4 125.09 .14 0 133.4 47.13 133.4"/></g></g><g><g><path class="d" d="M505.88,36.17h41.59v13.86h-26.34v25.65h20.93v13.86h-20.93v29.81h26.34v13.86h-41.59V36.17Z"/><path class="d" d="M560.92,128.29c-3.88-4.2-5.82-10.23-5.82-18.09V59.18c0-7.85,1.94-13.88,5.82-18.09,3.88-4.2,9.52-6.31,16.91-6.31s13.03,2.1,16.91,6.31c3.88,4.21,5.82,10.24,5.82,18.09v8.32h-14.42v-9.29c0-6.38-2.63-9.57-7.9-9.57s-7.9,3.19-7.9,9.57v53.1c0,6.29,2.63,9.43,7.9,9.43s7.9-3.14,7.9-9.43v-18.99h-7.62v-13.86h22.04v31.75c0,7.86-1.94,13.89-5.82,18.09-3.88,4.21-9.52,6.31-16.91,6.31s-13.03-2.1-16.91-6.31Z"/><path class="d" d="M610.41,36.17h15.25v97.04h-15.25V36.17Z"/><path class="d" d="M648.94,50.03h-15.94v-13.86h47.13v13.86h-15.94v83.18h-15.25V50.03Z"/><path class="d" d="M700.79,50.03h-15.94v-13.86h47.13v13.86h-15.94v83.18h-15.25V50.03Z"/><path class="d" d="M743.63,128.22c-3.97-4.25-5.96-10.26-5.96-18.02V59.18c0-7.76,1.99-13.77,5.96-18.02,3.97-4.25,9.7-6.38,17.19-6.38s13.22,2.13,17.19,6.38c3.97,4.25,5.96,10.26,5.96,18.02v51.02c0,7.76-1.99,13.77-5.96,18.02-3.97,4.25-9.7,6.38-17.19,6.38s-13.22-2.12-17.19-6.38Zm25.09-17.05V58.21c0-6.38-2.63-9.57-7.9-9.57s-7.9,3.19-7.9,9.57v52.96c0,6.38,2.63,9.57,7.9,9.57s7.9-3.19,7.9-9.57Z"/></g><g><path class="e" d="M293.05,50.03h-15.94v-13.86h47.13v13.86h-15.94v83.18h-15.25V50.03Z"/><path class="e" d="M335.89,128.22c-3.97-4.25-5.96-10.26-5.96-18.02V59.18c0-7.76,1.99-13.77,5.96-18.02,3.97-4.25,9.7-6.38,17.19-6.38s13.22,2.13,17.19,6.38c3.97,4.25,5.96,10.26,5.96,18.02v51.02c0,7.76-1.99,13.77-5.96,18.02-3.97,4.25-9.7,6.38-17.19,6.38s-13.22-2.12-17.19-6.38Zm25.09-17.05V58.21c0-6.38-2.63-9.57-7.9-9.57s-7.9,3.19-7.9,9.57v52.96c0,6.38,2.63,9.57,7.9,9.57s7.9-3.19,7.9-9.57Z"/><path class="e" d="M391.76,128.29c-3.88-4.2-5.82-10.23-5.82-18.09V36.17h15.25V111.31c0,3.33,.67,5.73,2.01,7.21,1.34,1.48,3.26,2.22,5.75,2.22s4.41-.74,5.75-2.22c1.34-1.48,2.01-3.88,2.01-7.21V36.17h14.69V110.2c0,7.86-1.94,13.89-5.82,18.09-3.88,4.21-9.52,6.31-16.91,6.31s-13.03-2.1-16.91-6.31Z"/><path class="e" d="M442.22,36.17h22.6c7.85,0,13.59,1.83,17.19,5.48,3.6,3.65,5.41,9.27,5.41,16.84v5.96c0,10.07-3.33,16.45-9.98,19.13v.28c3.7,1.11,6.31,3.37,7.83,6.79,1.52,3.42,2.29,8,2.29,13.73v17.05c0,2.77,.09,5.01,.28,6.72,.18,1.71,.65,3.4,1.39,5.06h-15.53c-.55-1.57-.92-3.05-1.11-4.44-.19-1.39-.28-3.88-.28-7.49v-17.74c0-4.44-.72-7.53-2.15-9.29-1.43-1.76-3.91-2.63-7.42-2.63h-5.27v41.59h-15.25V36.17Zm20.79,41.59c3.05,0,5.34-.78,6.86-2.36,1.52-1.57,2.29-4.2,2.29-7.9v-7.49c0-3.51-.62-6.05-1.87-7.62-1.25-1.57-3.21-2.36-5.89-2.36h-6.93v27.73h5.55Z"/></g></g></g></g></g></svg>